<svg viewBox="0 0 28 40" fill="none" xmlns="http://www.w3.org/2000/svg" data-ember-extension="1">
  <path fill-rule="evenodd" clip-rule="evenodd" d="M5 0L0 3V32L14 40V34.2412L5 29.0984V0Z" fill="#284048"/>
  <path fill-rule="evenodd" clip-rule="evenodd" d="M5 0L0 3V32L14 40V34.2412L5 29.0984V0Z" fill="#F07830"/>
  <path fill-rule="evenodd" clip-rule="evenodd" d="M14 40V34.2412L23 29.0984V18.9016L28 16V32L14 40Z" fill="#C86828"/>
  <path d="M28 16L14 8L9 10.8571V16.6159L14 13.7588L23 18.9016L28 16Z" fill="#284048"/>
  <path d="M28 16L14 8L9 10.8571V16.6159L14 13.7588L23 18.9016L28 16Z" fill="#F0A870"/>
  <path fill-rule="evenodd" clip-rule="evenodd" d="M9 1L5 0V29.125L14 34.25V30L9 27V21V16.5V1Z" fill="white"/>
  <path d="M14 34.25L23 29.125V18.875L19 21V27L14 30V34.25Z" fill="white"/>
  <path d="M23 18.875L14 13.75L9 16.5V21L14 18L19 21L23 18.875Z" fill="white"/>
  <path d="M9 21L14 24V30L9 27V21Z" fill="#F07830"/>
  <path d="M9 21L14 24V30L9 27V21Z" fill="#507088"/>
  <path d="M19 21L14 24V30L19 27V21Z" fill="#C86828"/>
  <path d="M19 21L14 24V30L19 27V21Z" fill="#284048"/>
  <path d="M9 21L14 24L19 21L14 18L9 21Z" fill="#FFD8B8"/>
  <path d="M9 21L14 24L19 21L14 18L9 21Z" fill="#80A8C0"/>
</svg>